<?xml version="1.0" encoding="UTF-8"?>
<svg version="1.1" xmlns="http://www.w3.org/2000/svg" width="512" height="512">
<path d="M0 0 C1.11439453 -0.00852997 2.22878906 -0.01705994 3.37695312 -0.02584839 C4.59005661 -0.02494202 5.8031601 -0.02403564 7.05302429 -0.02310181 C8.33812897 -0.02981903 9.62323364 -0.03653625 10.94728088 -0.04345703 C14.4660239 -0.06109499 17.98466959 -0.06581151 21.50345254 -0.0670886 C23.70446227 -0.06851217 25.90544742 -0.07278567 28.10645103 -0.07808304 C35.79259685 -0.09657697 43.47867337 -0.10475457 51.1648407 -0.10317993 C58.31706879 -0.10197913 65.46899482 -0.12307082 72.6211465 -0.15466726 C78.77165429 -0.18086543 84.92206365 -0.19154573 91.07262677 -0.19026911 C94.74162402 -0.18976046 98.41035279 -0.19538961 102.0792942 -0.21662521 C106.17491238 -0.23968387 110.26985889 -0.23046518 114.36552429 -0.21841431 C115.57255508 -0.22965332 116.77958588 -0.24089233 118.02319336 -0.25247192 C124.95745904 -0.20066519 129.51350527 0.52017303 135.40336609 4.26742554 C137.46195984 6.48617554 137.46195984 6.48617554 138.84086609 8.76742554 C139.31395203 9.52023804 139.78703796 10.27305054 140.27445984 11.04867554 C142.23148678 14.89501223 142.52230551 18.22802964 142.46586609 22.51742554 C142.45684265 23.40945679 142.44781921 24.30148804 142.43852234 25.22055054 C142.42112 26.23375366 142.42112 26.23375366 142.40336609 27.26742554 C143.30633171 27.25410187 143.30633171 27.25410187 144.22753906 27.24050903 C150.53873623 27.15145928 156.84975259 27.09145405 163.16142273 27.04769897 C165.51143147 27.02768379 167.86139104 27.00046309 170.21122742 26.96566772 C173.60482476 26.9167043 176.99775905 26.89435494 180.39164734 26.87680054 C181.42856216 26.8561554 182.46547699 26.83551025 183.53381348 26.8142395 C195.51071744 26.81062174 205.84515069 31.08870904 214.56352234 39.30258179 C222.67651581 47.90083842 227.64595924 58.08459586 227.66063499 70.04545879 C227.66414107 70.69321092 227.66764714 71.34096305 227.67125946 72.00834402 C227.68053263 74.16988001 227.67566084 76.33114415 227.67079163 78.49269104 C227.67452996 80.06173128 227.67913221 81.63076965 227.68452227 83.19980508 C227.69674523 87.50484331 227.69649263 91.80980379 227.69413352 96.11485541 C227.69372517 100.76055256 227.70476628 105.40622485 227.71424866 110.0519104 C227.73085615 119.15164109 227.73635811 128.25134587 227.73747341 137.35109045 C227.73842408 144.74928024 227.7425353 152.14746149 227.74887466 159.54564857 C227.76648698 180.52710624 227.77571364 201.50854345 227.77421372 222.49000856 C227.7741338 223.62094337 227.77405389 224.75187818 227.77397156 225.91708374 C227.7738898 227.04940173 227.77380803 228.18171972 227.7737238 229.34835038 C227.77291107 247.69506922 227.79204544 266.04170592 227.82024829 284.38840099 C227.84898725 303.2327732 227.862788 322.07710536 227.86106074 340.92150003 C227.86039715 351.49869366 227.8658757 362.07580121 227.88741684 372.65297508 C227.905642 381.65958555 227.90996503 390.66607091 227.89639799 399.67269184 C227.8898749 404.26559405 227.8897273 408.85825635 227.90710449 413.45113564 C227.92286959 417.66134297 227.91993671 421.87112086 227.90253623 426.08131794 C227.89947386 427.59881074 227.9030698 429.11633586 227.91425638 430.63379052 C228.01787441 445.6953493 224.73213359 457.30888356 214.33695984 468.49008179 C207.14238814 475.37576311 197.97980969 480.37447071 187.85573673 480.40443993 C186.94313998 480.40951447 186.03054323 480.41458901 185.09029204 480.41981733 C184.09138251 480.42031509 183.09247297 480.42081284 182.06329346 480.42132568 C180.99915739 480.42570794 179.93502133 480.43009019 178.83863872 480.43460524 C175.26068474 480.44799605 171.68275539 480.45417282 168.1047821 480.46029663 C165.54403573 480.4681975 162.98329047 480.47646644 160.42254639 480.4850769 C152.72813007 480.50903826 145.03371497 480.5242271 137.33927312 480.53713697 C135.16448998 480.54085071 132.98970747 480.54482381 130.81492496 480.54888964 C117.29886464 480.57413207 103.78280327 480.59617702 90.26672459 480.60861778 C87.13689737 480.61154731 84.00707018 480.61450899 80.87724304 480.61752319 C80.09937401 480.61826924 79.32150498 480.61901529 78.52006417 480.61978395 C65.93223801 480.63242488 53.34455351 480.66563161 40.75679351 480.70732503 C27.82135123 480.74981724 14.8859813 480.77332135 1.95046943 480.77853835 C-5.30747456 480.78194462 -12.56519735 480.7936065 -19.82307243 480.82664108 C-26.65623525 480.85769213 -33.48900764 480.86301766 -40.32222939 480.85125732 C-42.82431346 480.85103694 -45.32641561 480.85931239 -47.82843781 480.87691116 C-66.13583543 480.99862646 -79.57416829 479.90473208 -93.30366516 466.61508179 C-100.67916876 458.67941336 -104.84065166 448.28919946 -104.85390282 437.48939228 C-104.85740889 436.84164015 -104.86091497 436.19388803 -104.86452729 435.52650705 C-104.87380045 433.36497106 -104.86892867 431.20370693 -104.86405945 429.04216003 C-104.86779778 427.4731198 -104.87240003 425.90408142 -104.87779009 424.33504599 C-104.89001305 420.03000776 -104.88976045 415.72504729 -104.88740134 411.41999567 C-104.88699299 406.77429851 -104.8980341 402.12862622 -104.90751648 397.48294067 C-104.92412398 388.38320998 -104.92962593 379.2835052 -104.93074124 370.18376062 C-104.9316919 362.78557083 -104.93580312 355.38738959 -104.94214249 347.9892025 C-104.9597548 327.00774484 -104.96898146 306.02630763 -104.96748154 285.04484252 C-104.96740163 283.91390771 -104.96732171 282.7829729 -104.96723938 281.61776733 C-104.96715762 280.48544934 -104.96707586 279.35313135 -104.96699162 278.18650069 C-104.96617889 259.83978186 -104.98531326 241.49314516 -105.01351611 223.14645008 C-105.04225507 204.30207788 -105.05605582 185.45774572 -105.05432856 166.61335105 C-105.05366497 156.03615742 -105.05914352 145.45904987 -105.08068466 134.88187599 C-105.09890982 125.87526553 -105.10323286 116.86878016 -105.08966582 107.86215923 C-105.08314272 103.26925702 -105.08299512 98.67659472 -105.10037231 94.08371544 C-105.11613741 89.8735081 -105.11320454 85.66373022 -105.09580405 81.45353314 C-105.09274168 79.93604034 -105.09633762 78.41851521 -105.1075242 76.90106056 C-105.20998174 62.00818708 -102.02349135 50.42230522 -91.78804016 39.30258179 C-84.50299616 32.38103271 -74.81437344 27.1276891 -64.64448547 27.15390015 C-63.66377075 27.15397568 -62.68305603 27.15405121 -61.67262268 27.15412903 C-60.62145264 27.15929031 -59.57028259 27.1644516 -58.48725891 27.16976929 C-57.4053125 27.17118423 -56.32336609 27.17259918 -55.20863342 27.17405701 C-51.75460541 27.17965235 -48.30064232 27.19220403 -44.84663391 27.20492554 C-42.50418693 27.20994114 -40.16173893 27.21450394 -37.81929016 27.21859741 C-32.07838261 27.22962026 -26.3375129 27.2463538 -20.59663391 27.26742554 C-20.60509338 26.00358032 -20.61355286 24.73973511 -20.62226868 23.43759155 C-20.66923482 16.42084906 -19.15461015 10.43684072 -14.22163391 5.26742554 C-9.98717462 1.24565598 -5.77634434 0.02004633 0 0 Z M-2.59663391 18.26742554 C-4.74358383 22.56132537 -3.78248856 28.30071132 -3.78193665 33.07089233 C-3.78412189 35.19324834 -3.80227911 37.31508349 -3.82124329 39.43734741 C-3.82417759 40.78565293 -3.82616214 42.13396091 -3.82710266 43.48226929 C-3.83121155 44.71066528 -3.83532043 45.93906128 -3.83955383 47.2046814 C-3.83316108 50.44040945 -3.83316108 50.44040945 -1.59663391 53.26742554 C1.33798558 54.24563203 3.23553777 54.39749689 6.2928772 54.40786743 C7.30091904 54.41357758 8.30896088 54.41928772 9.34754944 54.4251709 C11.00507736 54.42684769 11.00507736 54.42684769 12.6960907 54.42855835 C13.86053207 54.43352325 15.02497345 54.43848816 16.22470093 54.44360352 C20.08504319 54.45823492 23.94534438 54.46502811 27.80570984 54.47055054 C29.80610824 54.47484778 31.80650663 54.47914554 33.80690485 54.48352504 C39.37980961 54.49533428 44.9527044 54.50287299 50.5256204 54.50632024 C57.73346736 54.51080341 64.94112492 54.52836533 72.14891428 54.55732083 C77.72096964 54.57892858 83.29297167 54.58902399 88.8650685 54.59036136 C92.19300724 54.59140982 95.52072704 54.59876859 98.84863091 54.61518097 C102.55965023 54.63217916 106.27020481 54.63037642 109.98124695 54.62387085 C111.08424133 54.63308563 112.18723572 54.64230042 113.32365417 54.65179443 C114.83994667 54.6434407 114.83994667 54.6434407 116.38687134 54.63491821 C117.70287779 54.63711805 117.70287779 54.63711805 119.04547024 54.63936234 C121.94393713 54.18215533 123.3141973 53.30811937 125.40336609 51.26742554 C126.02339462 47.93102763 126.02339462 47.93102763 125.93461609 44.07992554 C125.93844299 43.38101196 125.9422699 42.68209839 125.94621277 41.96200562 C125.94893177 40.4859981 125.94157107 39.0099424 125.92485046 37.5340271 C125.90343595 35.27479632 125.92464744 33.01874493 125.95024109 30.75961304 C125.9475978 29.32471019 125.9424728 27.88980931 125.93461609 26.45492554 C125.92784851 24.49619507 125.92784851 24.49619507 125.92094421 22.49789429 C125.7301766 19.25293194 125.7301766 19.25293194 123.68412781 17.5889101 C121.01184712 16.04057752 119.46551864 15.89261553 116.39360046 15.89320374 C115.38418396 15.88618942 114.37476746 15.87917511 113.33476257 15.87194824 C112.23333923 15.87959198 111.13191589 15.88723572 109.99711609 15.89511108 C108.83252869 15.89146042 107.66794128 15.88780975 106.46806335 15.88404846 C102.61301659 15.87593311 98.75838883 15.88956182 94.90336609 15.90414429 C92.22822987 15.90466277 89.5531096 15.90419793 86.87797546 15.90263367 C81.26920048 15.90175104 75.66054645 15.9128244 70.05180359 15.9312439 C63.56930896 15.9524111 57.08699149 15.95592123 50.6044693 15.94968194 C44.36594303 15.94398512 38.12747908 15.94963767 31.88896179 15.96085548 C29.23515575 15.96470995 26.58134438 15.96585468 23.92753601 15.96426964 C20.22145881 15.96389958 16.51565266 15.97650295 12.80961609 15.99276733 C11.70819275 15.99028992 10.60676941 15.9878125 9.4719696 15.98526001 C8.4625531 15.99234482 7.4531366 15.99942963 6.41313171 16.00672913 C5.5370929 16.008782 4.66105408 16.01083487 3.75846863 16.01294994 C1.19009343 16.29047026 -0.42156825 16.8889394 -2.59663391 18.26742554 Z M-81.59663391 54.26742554 C-85.62368061 60.1072169 -87.71885895 64.27078518 -87.7336483 71.49638462 C-87.73872284 72.80943091 -87.74379739 74.1224772 -87.7490257 75.47531277 C-87.7496274 76.94130039 -87.75012647 78.40728806 -87.75053406 79.87327576 C-87.75454818 81.42378886 -87.75898632 82.9743009 -87.76381361 84.52481169 C-87.77579071 88.79712007 -87.7814302 93.06941717 -87.78599477 97.34173906 C-87.79194662 101.94520013 -87.80355757 106.54864766 -87.81428528 111.15209961 C-87.83881975 122.27594314 -87.85343843 133.39979115 -87.86634535 144.52365342 C-87.87005666 147.66509962 -87.87402995 150.80654537 -87.87809801 153.94799113 C-87.90333507 173.45191842 -87.92539032 192.9558464 -87.93782616 212.45978642 C-87.94075591 216.97859258 -87.94371756 221.49739872 -87.94673157 226.01620483 C-87.94747762 227.13934699 -87.94822367 228.26248915 -87.94899233 229.41966593 C-87.9616452 247.61280607 -87.99486663 265.80584847 -88.0365334 283.99894292 C-88.07895289 302.67367177 -88.10252126 321.34835059 -88.10774672 340.0231275 C-88.11116093 350.50980432 -88.12291727 360.99632842 -88.15584946 371.48295784 C-88.18385136 380.41434062 -88.19484868 389.34553938 -88.183654 398.27696265 C-88.17846762 402.83319395 -88.18135267 407.38903991 -88.20611954 411.94521523 C-88.22862228 416.11977284 -88.22786448 420.29366851 -88.20891567 424.46823781 C-88.20611706 425.97505466 -88.21170653 427.48191649 -88.2267286 428.98866106 C-88.3235342 439.33455374 -87.05711291 447.13787469 -80.09663391 455.14242554 C-79.27163391 455.84367554 -78.44663391 456.54492554 -77.59663391 457.26742554 C-76.39007141 458.35023804 -76.39007141 458.35023804 -75.15913391 459.45492554 C-67.69845686 464.73198979 -58.39348304 464.41616735 -49.61038208 464.40786743 C-48.12565597 464.41232412 -48.12565597 464.41232412 -46.61093539 464.41687083 C-43.30253003 464.42552499 -39.994161 464.4270633 -36.68574524 464.42855835 C-34.31012393 464.43318883 -31.93450337 464.4382138 -29.55888367 464.44360352 C-23.11035231 464.45670695 -16.66182788 464.46320557 -10.21328568 464.46761417 C-6.18203173 464.47038279 -2.15078016 464.47462124 1.88047218 464.47911835 C13.05575885 464.49130574 24.23104362 464.50160633 35.40633678 464.50499344 C36.12070173 464.505213 36.83506667 464.50543257 37.57107903 464.50565879 C38.28708918 464.50587707 39.00309933 464.50609535 39.74080676 464.50632024 C41.19155896 464.50676369 42.64231116 464.50721026 44.09306335 464.50765991 C44.81267651 464.50788134 45.53228966 464.50810277 46.27370927 464.50833091 C57.92756685 464.51227688 69.58136183 464.52972714 81.23519524 464.55301943 C93.21812877 464.57677496 105.20103094 464.58919718 117.18398839 464.59036136 C123.90468159 464.59127572 130.62528081 464.59728963 137.34595299 464.61518097 C143.67020781 464.63168998 149.99430808 464.6338033 156.31857681 464.62504196 C158.63401644 464.62427312 160.94946448 464.628594 163.26488304 464.63850021 C183.63155843 465.36328796 183.63155843 465.36328796 201.64945984 457.15023804 C207.37500233 451.0038873 210.52328027 444.39307558 210.54038048 436.03846645 C210.54545502 434.72542016 210.55052956 433.41237388 210.55575788 432.0595383 C210.55635958 430.59355068 210.55685865 429.12756301 210.55726624 427.66157532 C210.56128036 426.11106222 210.5657185 424.56055017 210.57054579 423.01003939 C210.58252288 418.737731 210.58816238 414.46543391 210.59272695 410.19311202 C210.5986788 405.58965094 210.61028974 400.98620341 210.62101746 396.38275146 C210.64555193 385.25890794 210.66017061 374.13505992 210.67307752 363.01119766 C210.67678884 359.86975146 210.68076213 356.7283057 210.68483019 353.58685994 C210.71006725 334.08293265 210.7321225 314.57900467 210.74455833 295.07506466 C210.74748808 290.55625849 210.75044974 286.03745235 210.75346375 281.51864624 C210.75458282 279.833933 210.75458282 279.833933 210.7557245 278.11518515 C210.76837738 259.922045 210.80159881 241.72900261 210.84326558 223.53590816 C210.88568507 204.8611793 210.90925343 186.18650049 210.9144789 167.51172358 C210.91789311 157.02504676 210.92964945 146.53852265 210.96258163 136.05189323 C210.99058354 127.12051046 211.00158086 118.1893117 210.99038617 109.25788843 C210.9851998 104.70165712 210.98808485 100.14581117 211.01285172 95.58963585 C211.03535446 91.41507823 211.03459665 87.24118256 211.01564784 83.06661326 C211.01284924 81.55979642 211.01843871 80.05293458 211.03346078 78.54619002 C211.11629798 69.69314029 210.318355 62.84750012 205.40336609 55.26742554 C204.53711609 53.87523804 204.53711609 53.87523804 203.65336609 52.45492554 C198.5268945 47.47085594 191.92775847 44.13465237 184.74833679 44.15390015 C183.80758804 44.15397568 182.86683929 44.15405121 181.89758301 44.15412903 C180.37870735 44.16187096 180.37870735 44.16187096 178.82914734 44.16976929 C177.27069344 44.17189171 177.27069344 44.17189171 175.68075562 44.17405701 C172.35909661 44.17965898 169.03750476 44.19221182 165.71586609 44.20492554 C163.46521602 44.20994028 161.2145649 44.21450323 158.96391296 44.21859741 C153.44370772 44.22962905 147.9235417 44.2463691 142.40336609 44.26742554 C142.22378357 45.59568359 142.22378357 45.59568359 142.04057312 46.95077515 C141.79089783 48.69886475 141.79089783 48.69886475 141.53617859 50.48226929 C141.37520691 51.63589966 141.21423523 52.78953003 141.04838562 53.9781189 C140.17693772 58.42210739 138.74519405 62.14983279 135.40336609 65.26742554 C128.39671756 69.67215926 122.53541311 69.83453099 114.38139343 69.76913452 C113.09263809 69.77453751 111.80388275 69.77994049 110.47607422 69.7855072 C106.9616208 69.79939822 103.44766042 69.78833869 99.93323469 69.77179599 C96.24583577 69.75788511 92.55846371 69.76441219 88.87104797 69.76792908 C82.68252164 69.77062578 76.49418987 69.75720001 70.30570984 69.73397827 C63.15965658 69.70734829 56.01392799 69.70563085 48.86784208 69.71736664 C41.97896206 69.72815817 35.09019902 69.72194811 28.20132828 69.70781136 C25.27561794 69.70206582 22.34999362 69.70212285 19.42428207 69.70687675 C15.33819246 69.71255004 11.25258492 69.69329774 7.16654968 69.67147827 C5.95704147 69.67597992 4.74753326 69.68048157 3.50137329 69.68511963 C-3.28703983 69.62485919 -7.77493826 69.03170213 -13.38960266 64.97055054 C-17.23888551 60.95953312 -18.32796714 56.87372667 -19.27241516 51.50180054 C-19.40281189 50.80554565 -19.53320862 50.10929077 -19.66755676 49.39193726 C-19.98589406 47.68535663 -20.29245444 45.97658642 -20.59663391 44.26742554 C-26.96441558 44.13982454 -33.33186321 44.05274148 -39.70063782 43.99276733 C-41.86352357 43.96774514 -44.0263258 43.93371645 -46.18891907 43.89022827 C-49.31201373 43.82903347 -52.43398304 43.8010921 -55.55757141 43.77914429 C-56.5121524 43.75333786 -57.4667334 43.72753143 -58.45024109 43.70094299 C-67.68133588 43.6971545 -75.67597321 46.99347096 -81.59663391 54.26742554 Z " fill="#000000" transform="translate(194.5966339111328,15.732574462890625)"/>
<path d="M0 0 C5.95404018 3.6463715 10.04684343 8.86201044 12.04296875 15.55078125 C13.08136883 22.10956468 12.70512257 28.82039778 12.5 35.4375 C13.06396484 35.41655273 13.62792969 35.39560547 14.20898438 35.37402344 C16.80580249 35.29001499 19.40233362 35.23857771 22 35.1875 C22.886875 35.15398437 23.77375 35.12046875 24.6875 35.0859375 C31.86369536 34.98040522 36.88518967 36.51866494 42.48828125 41.04296875 C47.04362413 46.48519255 49.12004848 51.89128585 49.875 58.9375 C49.15808283 65.62872696 47.34790395 71.58959605 42.5 76.4375 C35.54166726 81.7318836 29.60300862 82.73828008 21.125 82.5625 C20.29355469 82.55347656 19.46210938 82.54445313 18.60546875 82.53515625 C16.57018663 82.5117622 14.53505436 82.47589725 12.5 82.4375 C12.55220703 84.01337891 12.55220703 84.01337891 12.60546875 85.62109375 C12.84912206 96.05591949 12.551436 105.05200854 5.5 113.4375 C-1.55972387 118.8087126 -7.69995469 120.17855645 -16.5 119.4375 C-22.41311707 118.04376703 -27.44898692 115.53435545 -30.87890625 110.35546875 C-34.87541635 103.48966934 -35.65459336 98.05211286 -35.5625 90.125 C-35.55798828 89.38443359 -35.55347656 88.64386719 -35.54882812 87.88085938 C-35.53712175 86.06637101 -35.51918898 84.25192466 -35.5 82.4375 C-36.69496094 82.48390625 -37.88992187 82.5303125 -39.12109375 82.578125 C-49.41860212 82.86053014 -57.26660043 82.98828223 -65.375 75.9375 C-66.426875 74.7 -66.426875 74.7 -67.5 73.4375 C-68.056875 72.81875 -68.61375 72.2 -69.1875 71.5625 C-72.6534723 65.9509258 -73.38801728 59.63132949 -72.03515625 53.2421875 C-69.97575158 46.05254989 -66.47055347 40.98910759 -59.94921875 37.25390625 C-54.997486 34.8756404 -50.39872092 34.98347857 -45 35.1875 C-44.0821875 35.20554688 -43.164375 35.22359375 -42.21875 35.2421875 C-39.97803908 35.28886898 -37.73960201 35.35431478 -35.5 35.4375 C-35.53480469 34.31472656 -35.56960937 33.19195312 -35.60546875 32.03515625 C-35.84142617 21.36463753 -36.01856779 12.1179663 -28.20703125 3.9453125 C-20.6047874 -2.76971296 -9.363168 -4.15940732 0 0 Z M-16.65600586 17.58349609 C-18.82383425 20.93870778 -18.99714692 22.76559281 -19.00390625 26.7265625 C-19.02259766 27.91507813 -19.04128906 29.10359375 -19.06054688 30.328125 C-19.06119141 31.56046875 -19.06183594 32.7928125 -19.0625 34.0625 C-19.07141592 36.51310459 -19.09294992 38.96370549 -19.12890625 41.4140625 C-19.12963135 42.49768066 -19.13035645 43.58129883 -19.13110352 44.69775391 C-19.5 47.4375 -19.5 47.4375 -20.89819336 49.25146484 C-24.14991273 51.65915464 -26.45725368 51.56045389 -30.4609375 51.578125 C-31.65460938 51.59746094 -32.84828125 51.61679688 -34.078125 51.63671875 C-36.60140267 51.67046629 -39.12493551 51.68879393 -41.6484375 51.69140625 C-42.8446875 51.71589844 -44.0409375 51.74039063 -45.2734375 51.765625 C-46.37091309 51.7749707 -47.46838867 51.78431641 -48.59912109 51.79394531 C-51.69746588 52.2098201 -51.69746588 52.2098201 -53.88916016 54.81542969 C-55.72900982 57.29738342 -55.72900982 57.29738342 -55.5 60.0625 C-54.26367112 62.9987811 -53.23197193 63.82020249 -50.5 65.4375 C-47.56960697 65.87593851 -47.56960697 65.87593851 -44.34375 65.80859375 C-43.15652344 65.82599609 -41.96929687 65.84339844 -40.74609375 65.86132812 C-38.24870912 65.87044267 -35.75130717 65.87565104 -33.25390625 65.87695312 C-32.06667969 65.89564453 -30.87945312 65.91433594 -29.65625 65.93359375 C-28.57150391 65.93544678 -27.48675781 65.9372998 -26.36914062 65.93920898 C-23.5 66.4375 -23.5 66.4375 -21.14233398 68.08642578 C-19.03531924 71.10271119 -19.02949644 72.89905402 -19.06640625 76.55859375 C-19.05673828 77.74130859 -19.04707031 78.92402344 -19.03710938 80.14257812 C-19.05401009 82.62698299 -19.07483119 85.11136434 -19.09960938 87.59570312 C-19.3510991 94.74122734 -19.3510991 94.74122734 -16.16015625 100.77734375 C-13.57999609 102.69258207 -13.57999609 102.69258207 -10.375 102.5625 C-6.73087603 101.13653845 -6.16174967 99.92889554 -4.5 96.4375 C-4.06447476 93.39817075 -4.06447476 93.39817075 -4.12890625 90.1484375 C-4.11150391 88.95992188 -4.09410156 87.77140625 -4.07617188 86.546875 C-4.06702873 84.04949047 -4.0618449 81.55208843 -4.06054688 79.0546875 C-4.04185547 77.86875 -4.02316406 76.6828125 -4.00390625 75.4609375 C-4.00205322 74.37731934 -4.0002002 73.29370117 -3.99829102 72.17724609 C-3.5 69.4375 -3.5 69.4375 -1.85107422 67.58203125 C1.13323149 66.12923528 3.30533415 66.08422196 6.62109375 66.1015625 C7.80380859 66.08867187 8.98652344 66.07578125 10.20507812 66.0625 C12.68946541 66.0625 15.17386513 66.07028813 17.65820312 66.0859375 C24.81862403 66.30072406 24.81862403 66.30072406 30.84765625 63.0625 C32.73306196 60.58420418 32.73306196 60.58420418 32.5 57.8125 C31.41216274 55.22888652 30.72237442 54.12511838 28.5 52.4375 C25.66363679 51.96338438 25.66363679 51.96338438 22.44140625 51.99609375 C21.25095703 51.96966797 20.06050781 51.94324219 18.83398438 51.91601562 C17.58939453 51.90248047 16.34480469 51.88894531 15.0625 51.875 C12.60533474 51.84053586 10.14826673 51.79791504 7.69140625 51.74609375 C6.60029541 51.73376709 5.50918457 51.72144043 4.38500977 51.70874023 C1.53529901 51.44081871 -0.1271857 51.00335691 -2.5 49.4375 C-3.85581774 46.72586451 -3.64459038 44.54441365 -3.67578125 41.51171875 C-3.71155273 39.72797852 -3.71155273 39.72797852 -3.74804688 37.90820312 C-3.79081308 35.39795623 -3.8221731 32.88748759 -3.84179688 30.37695312 C-3.86951172 29.18392578 -3.89722656 27.99089844 -3.92578125 26.76171875 C-3.94036377 25.66947998 -3.95494629 24.57724121 -3.9699707 23.4519043 C-4.61952627 19.75772529 -5.86259181 18.06533176 -8.5 15.4375 C-12.42280166 14.62024965 -13.78772955 14.72853643 -16.65600586 17.58349609 Z " fill="#000000" transform="translate(267.5,108.5625)"/>
<path d="M0 0 C1.06790771 -0.00622879 2.13581543 -0.01245758 3.23608398 -0.01887512 C4.38407471 -0.00966537 5.53206543 -0.00045563 6.71484375 0.0090332 C7.89828369 0.0085347 9.08172363 0.00803619 10.30102539 0.00752258 C12.8025887 0.00986259 15.30415438 0.01958674 17.80566406 0.03613281 C21.63758367 0.05972358 25.46880749 0.05669302 29.30078125 0.05004883 C31.7304729 0.05562565 34.16016162 0.06273555 36.58984375 0.0715332 C38.31182983 0.07016609 38.31182983 0.07016609 40.06860352 0.06877136 C41.13651123 0.07830338 42.20441895 0.08783539 43.3046875 0.09765625 C44.24304443 0.10226364 45.18140137 0.10687103 46.14819336 0.11161804 C48.85205188 0.39310521 50.41578897 0.83258675 52.65234375 2.37231445 C54.73640262 5.41092103 54.90877827 7.98300264 54.92700195 11.61230469 C54.93653397 12.65696396 54.94606598 13.70162323 54.95588684 14.77793884 C54.95497543 15.90091873 54.95406403 17.02389862 54.953125 18.1809082 C54.95741013 19.33978043 54.96169525 20.49865265 54.96611023 21.69264221 C54.97185203 24.14290717 54.9723549 26.59318918 54.96801758 29.04345703 C54.96485872 32.79204391 54.98831597 36.53984084 55.01367188 40.28833008 C55.01594498 42.66918846 55.01664831 45.05004896 55.015625 47.4309082 C55.02483475 48.55186386 55.03404449 49.67281952 55.04353333 50.82774353 C55.03730453 51.87555496 55.03107574 52.92336639 55.0246582 54.00292969 C55.02528763 54.92130112 55.02591705 55.83967255 55.02656555 56.78587341 C54.57283262 59.92185711 53.492417 61.81402874 51.65234375 64.37231445 C49.08549221 65.65574022 47.22233309 65.52039552 44.34814453 65.54931641 C43.24004425 65.56215164 42.13194397 65.57498688 40.99026489 65.58821106 C39.78820404 65.59559799 38.58614319 65.60298492 37.34765625 65.6105957 C36.11699432 65.61866745 34.8863324 65.6267392 33.61837769 65.63505554 C31.01073622 65.64890477 28.40307656 65.65962315 25.79541016 65.66748047 C23.12004894 65.67635006 20.44520553 65.69724393 17.77001953 65.72900391 C13.92073789 65.77150985 10.07214293 65.78782651 6.22265625 65.7980957 C4.42563766 65.82435783 4.42563766 65.82435783 2.59231567 65.85115051 C0.92070877 65.84676216 0.92070877 65.84676216 -0.78466797 65.84228516 C-1.7645871 65.8481514 -2.74450623 65.85401764 -3.75411987 65.86006165 C-7.09869632 65.23107191 -8.25612362 64.0045502 -10.34765625 61.37231445 C-11.32090371 58.45257208 -11.47954553 56.56151953 -11.49291992 53.52124023 C-11.49929977 52.53656769 -11.50567963 51.55189514 -11.51225281 50.53738403 C-11.51336563 49.4748642 -11.51447845 48.41234436 -11.515625 47.31762695 C-11.5189534 46.22392792 -11.5222818 45.13022888 -11.52571106 44.00338745 C-11.53077647 41.68837912 -11.5331195 39.37336348 -11.53295898 37.05834961 C-11.53514327 33.51835066 -11.55329724 29.97866441 -11.57226562 26.4387207 C-11.57520006 24.19002385 -11.57718452 21.94132552 -11.578125 19.69262695 C-11.58531052 18.63415558 -11.59249603 17.5756842 -11.59989929 16.48513794 C-11.59682266 15.49416107 -11.59374603 14.5031842 -11.59057617 13.48217773 C-11.59200119 12.61408478 -11.59342621 11.74599182 -11.59489441 10.85159302 C-11.21073713 6.99930378 -10.32026143 4.34408261 -7.55688477 1.58308411 C-4.8495709 0.09933834 -3.08010942 -0.00206606 0 0 Z M5.65234375 17.37231445 C5.65234375 27.60231445 5.65234375 37.83231445 5.65234375 48.37231445 C16.21234375 48.37231445 26.77234375 48.37231445 37.65234375 48.37231445 C37.65234375 38.14231445 37.65234375 27.91231445 37.65234375 17.37231445 C27.09234375 17.37231445 16.53234375 17.37231445 5.65234375 17.37231445 Z " fill="#000000" transform="translate(140.34765625,367.627685546875)"/>
<path d="M0 0 C1.59702003 -0.01902626 1.59702003 -0.01902626 3.2263031 -0.03843689 C4.37115677 -0.03550125 5.51601044 -0.03256561 6.69555664 -0.02954102 C7.87662491 -0.03478287 9.05769318 -0.04002472 10.27455139 -0.04542542 C12.77189345 -0.05184797 15.26926575 -0.05050565 17.76660156 -0.04199219 C21.58786917 -0.03348698 25.40764004 -0.06223559 29.22875977 -0.09399414 C31.65519161 -0.09560633 34.0816261 -0.09502828 36.50805664 -0.09204102 C38.2223008 -0.10889198 38.2223008 -0.10889198 39.97117615 -0.12608337 C47.89564709 -0.05646656 47.89564709 -0.05646656 51.86572266 2.31005859 C54.63232624 5.52408527 54.80157967 7.3431369 54.84521484 11.50878906 C54.8644677 13.10603569 54.8644677 13.10603569 54.8841095 14.73554993 C54.89149643 15.89072617 54.89888336 17.0459024 54.90649414 18.23608398 C54.91456589 19.41998215 54.92263763 20.60388031 54.93095398 21.82365417 C54.94480353 24.33294201 54.95552177 26.84224875 54.96337891 29.3515625 C54.98059553 33.19038558 55.02447607 37.02834856 55.06860352 40.86694336 C55.07872977 43.30248389 55.08724608 45.73803175 55.09399414 48.17358398 C55.11150223 49.32268753 55.12901031 50.47179108 55.14704895 51.65571594 C55.13517655 56.01533924 54.9987867 59.53846699 53.43652344 63.62915039 C48.66436857 66.68881755 43.4856671 66.09343972 37.94946289 66.03295898 C36.69943481 66.03537094 35.44940674 66.0377829 34.16149902 66.04026794 C31.51784268 66.03928816 28.87644605 66.02845766 26.2331543 66.00097656 C22.84999513 65.96689162 19.46835297 65.97291307 16.08512115 65.99163914 C12.85231368 66.004766 9.61973761 65.98648951 6.38696289 65.97045898 C4.5665448 65.97789879 4.5665448 65.97789879 2.70935059 65.98548889 C1.58138062 65.96965256 0.45341064 65.95381622 -0.70874023 65.9375 C-2.19621765 65.92820213 -2.19621765 65.92820213 -3.71374512 65.91871643 C-7.06187777 65.260529 -8.23399089 64.04509916 -10.33178711 61.40405273 C-11.30503457 58.48431036 -11.46367639 56.59325781 -11.47705078 53.55297852 C-11.48343063 52.56830597 -11.48981049 51.58363342 -11.49638367 50.56912231 C-11.49749649 49.50660248 -11.49860931 48.44408264 -11.49975586 47.34936523 C-11.50308426 46.2556662 -11.50641266 45.16196716 -11.50984192 44.03512573 C-11.51490733 41.7201174 -11.51725036 39.40510176 -11.51708984 37.09008789 C-11.51927413 33.55008894 -11.5374281 30.01040269 -11.55639648 26.47045898 C-11.55933092 24.22176213 -11.56131538 21.9730638 -11.56225586 19.72436523 C-11.56944138 18.66589386 -11.57662689 17.60742249 -11.58403015 16.51687622 C-11.58095352 15.52589935 -11.57787689 14.53492249 -11.57470703 13.51391602 C-11.57613205 12.64582306 -11.57755707 11.7777301 -11.57902527 10.8833313 C-11.19489181 7.03128092 -10.30575277 4.37556327 -7.5400238 1.61680603 C-4.84370176 0.13599853 -3.06923037 0.01772937 0 0 Z M5.66821289 17.40405273 C5.66821289 27.96405273 5.66821289 38.52405273 5.66821289 49.40405273 C16.22821289 49.40405273 26.78821289 49.40405273 37.66821289 49.40405273 C37.66821289 38.84405273 37.66821289 28.28405273 37.66821289 17.40405273 C27.10821289 17.40405273 16.54821289 17.40405273 5.66821289 17.40405273 Z " fill="#000000" transform="translate(140.331787109375,267.595947265625)"/>
<path d="M0 0 C1.28701309 -0.0112793 2.57402618 -0.02255859 3.90003967 -0.03417969 C5.31906354 -0.02640311 6.73808518 -0.01821048 8.15710449 -0.00964355 C9.65710631 -0.01506591 11.15710281 -0.02218921 12.65708923 -0.03088379 C16.72531397 -0.04910684 20.7931326 -0.042054 24.86136436 -0.02936745 C29.12047793 -0.01923443 33.37955693 -0.02863396 37.63867188 -0.03491211 C44.79087563 -0.04218765 51.94291412 -0.03260332 59.09509277 -0.0135498 C67.36187818 0.00821883 75.62826896 0.00116739 83.8950448 -0.02085543 C90.99498702 -0.03901214 98.0948105 -0.04156644 105.19476843 -0.03110075 C109.43427848 -0.02486729 113.67360309 -0.02402607 117.9131012 -0.0372467 C121.89905821 -0.04880862 125.88450687 -0.04077371 129.87040901 -0.01766968 C131.3325065 -0.01238434 132.79464683 -0.01389344 134.25672722 -0.02272034 C136.25373676 -0.0336644 138.25083989 -0.01750125 140.24780273 0 C141.92356007 0.00226215 141.92356007 0.00226215 143.63317108 0.00457001 C147.30448355 0.62248216 148.9881829 1.92810656 151.62390137 4.50793457 C152.72234034 8.20793952 152.11639405 11.59330531 150.31140137 14.94543457 C147.08624477 17.93169068 143.74385212 17.63711746 139.5642395 17.64837646 C138.29680405 17.65408661 137.02936859 17.65979675 135.723526 17.66567993 C134.31613169 17.66692527 132.90873727 17.66805037 131.50134277 17.66906738 C130.02134579 17.67369594 128.54134999 17.67872065 127.06135559 17.68411255 C123.03859899 17.69723404 119.01585908 17.70368089 114.99308443 17.70812321 C112.48021374 17.71105403 109.96734761 17.71515883 107.45447922 17.71962738 C99.59334001 17.73330097 91.73221124 17.74296859 83.87106097 17.74682927 C74.79435415 17.75131136 65.71779782 17.7688668 56.64113677 17.79782987 C49.62619105 17.81943781 42.61128771 17.82953306 35.59630907 17.83087039 C31.40596061 17.83191896 27.21575365 17.8378378 23.02544022 17.85569 C19.08394402 17.87215564 15.14269591 17.87433363 11.2011776 17.86555099 C9.75519204 17.86477984 8.30919323 17.86913377 6.8632412 17.87900925 C4.88804476 17.89170744 2.91274887 17.88406797 0.93753052 17.87542725 C-0.16748999 17.87689381 -1.27251049 17.87836037 -2.41101646 17.87987137 C-5.77822812 17.45749187 -7.66221715 16.5134366 -10.37609863 14.50793457 C-11.94310306 11.37392572 -12.22774424 7.87638362 -11.37609863 4.50793457 C-7.63273044 0.82869215 -5.19820485 0.00701721 0 0 Z " fill="#000000" transform="translate(219.3760986328125,378.4920654296875)"/>
<path d="M0 0 C1.28701309 -0.01409912 2.57402618 -0.02819824 3.90003967 -0.04272461 C5.31906481 -0.03300388 6.73808646 -0.02276309 8.15710449 -0.01205444 C9.6571102 -0.01883241 11.15710758 -0.02773655 12.65708923 -0.03860474 C16.72538879 -0.06138397 20.79305383 -0.05256781 24.86136436 -0.03670931 C29.12048416 -0.02404302 33.37954993 -0.03579244 37.63867188 -0.04364014 C44.79091132 -0.0527346 51.94289254 -0.04075422 59.09509277 -0.01693726 C67.36195395 0.01027379 75.62819856 0.00145947 83.8950448 -0.02606928 C90.99500633 -0.04876524 98.09478234 -0.05195811 105.19476843 -0.03887594 C109.43431548 -0.03108404 113.6735728 -0.03003246 117.9131012 -0.04655838 C121.89916379 -0.06101116 125.88443215 -0.05096768 129.87040901 -0.0220871 C131.33250167 -0.01548045 132.79466127 -0.01736691 134.25672722 -0.02840042 C136.25372797 -0.04208044 138.25087495 -0.02187618 140.24780273 0 C141.36497429 0.00188513 142.48214584 0.00377026 143.63317108 0.00571251 C147.60964733 0.84230468 149.11936315 2.50029984 151.62390137 5.63491821 C152.24890137 9.13491821 152.24890137 9.13491821 151.62390137 12.63491821 C149.11936315 15.76953658 147.60964733 17.42753175 143.63317108 18.26412392 C142.51599953 18.26600904 141.39882797 18.26789417 140.24780273 18.26983643 C138.96078964 18.28393555 137.67377655 18.29803467 136.34776306 18.31256104 C134.92873792 18.30284031 133.50971627 18.29259951 132.09069824 18.28189087 C130.59069253 18.28866883 129.09069515 18.29757298 127.5907135 18.30844116 C123.52241394 18.33122039 119.45474891 18.32240423 115.38643837 18.30654573 C111.12731858 18.29387945 106.86825281 18.30562886 102.60913086 18.31347656 C95.45689142 18.32257103 88.30491019 18.31059065 81.15270996 18.28677368 C72.88584878 18.25956263 64.61960417 18.26837695 56.35275793 18.29590571 C49.2527964 18.31860166 42.15302039 18.32179453 35.05303431 18.30871236 C30.81348725 18.30092046 26.57422993 18.29986889 22.33470154 18.31639481 C18.34863894 18.33084758 14.36337058 18.3208041 10.37739372 18.29192352 C8.91530107 18.28531687 7.45314147 18.28720334 5.99107552 18.29823685 C3.99407476 18.31191687 1.99692779 18.2917126 0 18.26983643 C-1.11717155 18.2679513 -2.23434311 18.26606617 -3.38536835 18.26412392 C-7.3618446 17.42753175 -8.87156042 15.76953658 -11.37609863 12.63491821 C-12.00109863 9.13491821 -12.00109863 9.13491821 -11.37609863 5.63491821 C-7.83601928 1.20424204 -5.63550324 0.00950941 0 0 Z " fill="#000000" transform="translate(219.3760986328125,278.3650817871094)"/>
<path d="M0 0 C0.82321243 -0.00700928 1.64642487 -0.01401855 2.49458313 -0.02124023 C5.21352959 -0.03883378 7.93143373 -0.02719298 10.65039062 -0.01367188 C12.54081421 -0.01636641 14.43123644 -0.0202485 16.32165527 -0.02526855 C20.28276775 -0.03116544 24.24351933 -0.02259455 28.20458984 -0.00390625 C33.28251624 0.01888343 38.359597 0.00576136 43.43749237 -0.01819611 C47.34086481 -0.03264896 51.24403669 -0.02805045 55.14741516 -0.01768494 C57.01972046 -0.01501623 58.89204395 -0.01829246 60.764328 -0.02760315 C63.38113648 -0.03776038 65.99657485 -0.02228006 68.61328125 0 C69.38742874 -0.00809692 70.16157623 -0.01619385 70.95918274 -0.02453613 C74.45379206 0.03059825 76.43158544 0.23496652 79.26013184 2.36633301 C81.28047424 5.17669642 81.73608339 7.06027348 81.80664062 10.51757812 C80.62327956 13.25799322 79.64732992 14.93640887 77.1815033 16.64103699 C73.81087266 17.88510741 70.54161602 17.80418335 66.99633789 17.79223633 C66.21374603 17.79734726 65.43115417 17.80245819 64.62484741 17.807724 C62.04083586 17.82161101 59.45709128 17.82066394 56.87304688 17.81835938 C55.07470094 17.82224676 53.27635592 17.82658151 51.47801208 17.8313446 C47.70951358 17.83880486 43.94110877 17.83851691 40.17260742 17.83325195 C35.34602741 17.82745713 30.51983112 17.84438951 25.69331455 17.86759663 C21.97952537 17.88233627 18.26582856 17.88320536 14.5520153 17.8800869 C12.77263568 17.88059998 10.99325086 17.88583527 9.21389961 17.89589882 C6.7244595 17.90825067 4.23576626 17.90147942 1.74633789 17.88989258 C0.646614 17.90135818 0.646614 17.90135818 -0.47532654 17.91305542 C-4.88000264 17.86779611 -7.69114501 17.23242467 -11.19335938 14.51757812 C-12.7580717 11.38815347 -12.89037895 7.90675589 -12.19335938 4.51757812 C-8.86202901 -0.09505381 -5.30058931 -0.05543965 0 0 Z " fill="#000000" transform="translate(220.193359375,305.482421875)"/>
<path d="M0 0 C0.82321243 -0.00700928 1.64642487 -0.01401855 2.49458313 -0.02124023 C5.21352959 -0.03883378 7.93143373 -0.02719298 10.65039062 -0.01367188 C12.54081421 -0.01636641 14.43123644 -0.0202485 16.32165527 -0.02526855 C20.28276775 -0.03116544 24.24351933 -0.02259455 28.20458984 -0.00390625 C33.28251624 0.01888343 38.359597 0.00576136 43.43749237 -0.01819611 C47.34086481 -0.03264896 51.24403669 -0.02805045 55.14741516 -0.01768494 C57.01972046 -0.01501623 58.89204395 -0.01829246 60.764328 -0.02760315 C63.38113648 -0.03776038 65.99657485 -0.02228006 68.61328125 0 C69.38742874 -0.00809692 70.16157623 -0.01619385 70.95918274 -0.02453613 C74.45379206 0.03059825 76.43158544 0.23496652 79.26013184 2.36633301 C81.28047424 5.17669642 81.73608339 7.06027348 81.80664062 10.51757812 C80.54628797 13.59844016 79.63373776 15.08223179 76.67222595 16.64103699 C73.11049629 17.73051862 69.76956831 17.80507885 66.08227539 17.79223633 C65.32065094 17.79734726 64.55902649 17.80245819 63.77432251 17.807724 C61.26548325 17.82158403 58.75691979 17.820666 56.24804688 17.81835938 C54.49836628 17.82224818 52.74868662 17.82658324 50.99900818 17.8313446 C47.33483823 17.83879902 43.67076465 17.83852112 40.0065918 17.83325195 C35.31801806 17.82745732 30.62983935 17.84439187 25.94133091 17.86759663 C22.32872727 17.88234941 18.71621844 17.88320358 15.10359001 17.8800869 C13.37527623 17.8805993 11.64695704 17.88582179 9.91867256 17.89589882 C7.4989895 17.90827652 5.08007179 17.90146407 2.66040039 17.88989258 C1.5964782 17.90135818 1.5964782 17.90135818 0.51106262 17.91305542 C-4.1029968 17.86444119 -7.27725408 16.9567005 -11.19335938 14.51757812 C-12.7580717 11.38815347 -12.89037895 7.90675589 -12.19335938 4.51757812 C-8.86202901 -0.09505381 -5.30058931 -0.05543965 0 0 Z " fill="#000000" transform="translate(220.193359375,405.482421875)"/>
</svg>
